{
  "accessors": [
    {
      "bufferView": 2,
      "componentType": 5126,
      "count": 599,
      "max": [
        1.3327326774597168,
        2.4539637565612793,
        33.68767166137695
      ],
      "min": [
        -1.3327326774597168,
        -10.02325439453125,
        -8.156268119812012
      ],
      "type": "VEC3"
    },
    {
      "bufferView": 2,
      "byteOffset": 7188,
      "componentType": 5126,
      "count": 599,
      "max": [
        0.9999995231628418,
        0.9999428987503052,
        0.9998971819877625
      ],
      "min": [
        -0.9999997615814209,
        -0.9999622106552124,
        -0.9999793767929077
      ],
      "type": "VEC3"
    },
    {
      "bufferView": 3,
      "componentType": 5126,
      "count": 599,
      "max": [
        0.9999893307685852,
        0.9998279213905334,
        0.9587060809135437,
        1.0
      ],
      "min": [
        -0.9969193339347839,
        -0.9999289512634277,
        -0.9999986290931702,
        1.0
      ],
      "type": "VEC4"
    },
    {
      "bufferView": 1,
      "componentType": 5126,
      "count": 599,
      "max": [
        0.7477468848228455,
        1.0
      ],
      "min": [
        0.0,
        0.0
      ],
      "type": "VEC2"
    },
    {
      "bufferView": 1,
      "byteOffset": 4792,
      "componentType": 5126,
      "count": 599,
      "max": [
        0.7477468848228455,
        1.0
      ],
      "min": [
        0.0,
        0.0
      ],
      "type": "VEC2"
    },
    {
      "bufferView": 1,
      "byteOffset": 9584,
      "componentType": 5126,
      "count": 599,
      "max": [
        0.7477468848228455,
        1.0
      ],
      "min": [
        0.0,
        0.0
      ],
      "type": "VEC2"
    },
    {
      "bufferView": 0,
      "componentType": 5125,
      "count": 2610,
      "type": "SCALAR"
    }
  ],
  "asset": {
    "extras": {
      "author": "Voidy Entertainment (https://sketchfab.com/VoidyAssets)",
      "license": "CC-BY-4.0 (http://creativecommons.org/licenses/by/4.0/)",
      "source": "https://sketchfab.com/3d-models/game-ready-cleaver-88a5a197d3c1426d858e22f4537005cc",
      "title": "Game Ready Cleaver"
    },
    "generator": "Sketchfab-16.95.0",
    "version": "2.0"
  },
  "bufferViews": [
    {
      "buffer": 0,
      "byteLength": 10440,
      "name": "floatBufferViews",
      "target": 34963
    },
    {
      "buffer": 0,
      "byteLength": 14376,
      "byteOffset": 10440,
      "byteStride": 8,
      "name": "floatBufferViews",
      "target": 34962
    },
    {
      "buffer": 0,
      "byteLength": 14376,
      "byteOffset": 24816,
      "byteStride": 12,
      "name": "floatBufferViews",
      "target": 34962
    },
    {
      "buffer": 0,
      "byteLength": 9584,
      "byteOffset": 39192,
      "byteStride": 16,
      "name": "floatBufferViews",
      "target": 34962
    }
  ],
  "buffers": [
    {
      "byteLength": 48776,
      "uri": "scene.bin"
    }
  ],
  "images": [
    {
      "uri": "textures/M_Cleaver_baseColor.png"
    },
    {
      "uri": "textures/M_Cleaver_metallicRoughness.png"
    },
    {
      "uri": "textures/M_Cleaver_normal.png"
    }
  ],
  "materials": [
    {
      "doubleSided": true,
      "name": "M_Cleaver",
      "normalTexture": {
        "index": 2
      },
      "pbrMetallicRoughness": {
        "baseColorTexture": {
          "index": 0
        },
        "metallicRoughnessTexture": {
          "index": 1
        }
      }
    }
  ],
  "meshes": [
    {
      "name": "SM_Cleaver_M_Cleaver_0",
      "primitives": [
        {
          "attributes": {
            "NORMAL": 1,
            "POSITION": 0,
            "TANGENT": 2,
            "TEXCOORD_0": 3,
            "TEXCOORD_1": 4,
            "TEXCOORD_2": 5
          },
          "indices": 6,
          "material": 0,
          "mode": 4
        }
      ]
    }
  ],
  "nodes": [
    {
      "children": [
        1
      ],
      "matrix": [
        2.220446049250313e-16,
        -4.440892098500626e-16,
        1.0,
        0.0,
        1.0,
        -2.8327693431939985e-16,
        -2.2204460492503136e-16,
        0.0,
        2.832769343193999e-16,
        1.0,
        4.440892098500626e-16,
        0.0,
        0.0,
        0.0,
        0.0,
        1.0
      ],
      "name": "Sketchfab_model"
    },
    {
      "children": [
        2
      ],
      "matrix": [
        0.009999999776482582,
        0.0,
        0.0,
        0.0,
        0.0,
        0.0,
        0.009999999776482582,
        0.0,
        0.0,
        -0.009999999776482582,
        0.0,
        0.0,
        0.0,
        0.0,
        0.0,
        1.0
      ],
      "name": "d8a09b561d694f8fbaeccaee35ce8bf0.fbx"
    },
    {
      "children": [
        3
      ],
      "name": "RootNode"
    },
    {
      "children": [
        4
      ],
      "matrix": [
        1.0,
        0.0,
        0.0,
        0.0,
        0.0,
        0.9999999999999971,
        -7.549789415861594e-08,
        0.0,
        0.0,
        7.549789415861594e-08,
        0.9999999999999971,
        0.0,
        0.0,
        0.0,
        0.0,
        1.0
      ],
      "name": "SM_Cleaver"
    },
    {
      "mesh": 0,
      "name": "SM_Cleaver_M_Cleaver_0"
    }
  ],
  "samplers": [
    {
      "magFilter": 9729,
      "minFilter": 9987,
      "wrapS": 10497,
      "wrapT": 10497
    }
  ],
  "scene": 0,
  "scenes": [
    {
      "name": "Sketchfab_Scene",
      "nodes": [
        0
      ]
    }
  ],
  "textures": [
    {
      "sampler": 0,
      "source": 0
    },
    {
      "sampler": 0,
      "source": 1
    },
    {
      "sampler": 0,
      "source": 2
    }
  ]
}
